<svg height="512pt" viewBox="0 -118 512 512" width="512pt" xmlns="http://www.w3.org/2000/svg"><path d="m365.402344 155.808594h-218.804688c-10.273437 0-18.597656-8.328125-18.597656-18.597656v-83.375c0-10.269532 8.324219-18.597657 18.597656-18.597657h218.804688c10.273437 0 18.597656 8.328125 18.597656 18.597657v83.375c0 10.269531-8.324219 18.597656-18.597656 18.597656zm0 0" fill="#ff6e88"/><g fill="#e36278"><path d="m366.34375 35.261719c.011719.21875.015625.4375.015625.65625v83.457031c0 10.734375-8.703125 19.4375-19.4375 19.4375h-218.855469c.8125 9.519531 8.796875 16.996094 18.53125 16.996094h218.804688c10.273437 0 18.597656-8.328125 18.597656-18.597656v-83.375c0-9.957032-7.824219-18.082032-17.65625-18.574219zm0 0"/><path d="m223.550781 35.238281h-47.390625v-23.289062c0-6.601563 5.351563-11.949219 11.949219-11.949219h23.492187c6.597657 0 11.949219 5.347656 11.949219 11.949219zm0 0"/><path d="m335.839844 35.238281h-47.390625v-23.289062c0-6.601563 5.351562-11.949219 11.949219-11.949219h23.492187c6.597656 0 11.945313 5.347656 11.945313 11.949219v23.289062zm0 0"/></g><path d="m237.402344 276.53125h-218.804688c-10.273437 0-18.597656-8.324219-18.597656-18.59375v-83.378906c0-10.269532 8.324219-18.59375 18.597656-18.59375h218.804688c10.273437 0 18.597656 8.324218 18.597656 18.59375v83.378906c0 10.269531-8.324219 18.59375-18.597656 18.59375zm0 0" fill="#ffb258"/><path d="m238.589844 156v82.996094c0 10.699218-8.671875 19.371094-19.367188 19.371094h-219.21874975c.23046875 10.070312 8.46484375 18.164062 18.59374975 18.164062h218.804688c10.273437 0 18.597656-8.324219 18.597656-18.59375v-83.378906c0-9.871094-7.691406-17.945313-17.410156-18.558594zm0 0" fill="#e8a250"/><path d="m95.550781 155.964844h-47.390625v-23.292969c0-6.597656 5.351563-11.945313 11.949219-11.945313h23.492187c6.597657 0 11.949219 5.347657 11.949219 11.945313zm0 0" fill="#e8a250"/><path d="m493.402344 276.53125h-218.804688c-10.273437 0-18.597656-8.324219-18.597656-18.59375v-83.378906c0-10.269532 8.324219-18.59375 18.597656-18.59375h218.804688c10.273437 0 18.597656 8.324218 18.597656 18.59375v83.378906c0 10.269531-8.324219 18.59375-18.597656 18.59375zm0 0" fill="#4d9ae8"/><path d="m493.898438 155.96875v82.636719c0 10.664062-8.640626 19.304687-19.304688 19.304687h-218.59375v.027344c0 10.269531 8.324219 18.59375 18.597656 18.59375h218.804688c10.273437 0 18.597656-8.324219 18.597656-18.59375v-83.378906c0-10.105469-8.058594-18.324219-18.101562-18.589844zm0 0" fill="#4181c2"/><path d="m463.839844 155.964844h-47.390625v-23.292969c0-6.597656 5.351562-11.945313 11.949219-11.945313h23.492187c6.597656 0 11.945313 5.347657 11.945313 11.945313v23.292969zm0 0" fill="#4181c2"/></svg>