<svg height="511pt" viewBox="0 -32 511.99987 511" width="511pt" xmlns="http://www.w3.org/2000/svg"><path d="m153.804688 73.785156h-76.570313c-8.46875 0-15.335937 6.867188-15.335937 15.335938v112.878906c0 8.472656 6.867187 15.339844 15.335937 15.339844h76.570313c8.46875 0 15.335937-6.867188 15.335937-15.339844v-112.878906c0-8.46875-6.867187-15.335938-15.335937-15.335938zm0 0" fill="#fff5c6"/><path d="m139.910156 17.046875h-48.78125c-24.808594 0-44.996094 20.1875-44.996094 45v27.074219c0 8.472656 6.867188 15.339844 15.339844 15.339844h108.09375c8.472656 0 15.339844-6.867188 15.339844-15.339844v-27.074219c0-24.8125-20.1875-45-44.996094-45zm0 0" fill="#ff432e"/><path d="m303.171875 186.664062h-225.9375c-8.46875 0-15.335937 6.867188-15.335937 15.335938v86.28125c0 8.46875 6.867187 15.339844 15.335937 15.339844h225.9375c8.472656 0 15.339844-6.871094 15.339844-15.339844v-86.28125c-.003907-8.46875-6.871094-15.335938-15.339844-15.335938zm0 0" fill="#ffda45"/><path d="m303.171875 186.664062h-47.152344v116.957032h47.152344c8.46875 0 15.335937-6.871094 15.335937-15.339844v-86.28125c0-8.46875-6.867187-15.335938-15.335937-15.335938zm0 0" fill="#ff9f00"/><path d="m465.402344 73.785156h-162.230469c-8.472656 0-15.339844 6.867188-15.339844 15.335938v199.160156c0 8.46875 6.867188 15.339844 15.339844 15.339844h162.230469c8.472656 0 15.339844-6.871094 15.339844-15.339844v-199.160156c0-8.46875-6.867188-15.335938-15.339844-15.335938zm-80.085938 150.296875c-23.582031 0-42.765625-19.183593-42.765625-42.765625 0-23.578125 19.183594-42.761718 42.765625-42.761718 23.578125 0 42.761719 19.183593 42.761719 42.761718 0 23.582032-19.183594 42.765625-42.761719 42.765625zm0 0" fill="#ffde88"/><path d="m459.933594.5h-151.292969c-28.710937 0-52.066406 23.355469-52.066406 52.066406v36.554688c0 8.472656 6.871093 15.339844 15.339843 15.339844h224.746094c8.472656 0 15.339844-6.867188 15.339844-15.339844v-36.554688c0-28.710937-23.355469-52.066406-52.066406-52.066406zm0 0" fill="#ea0016"/><path d="m61.898438 277.625-50.679688 56.933594c-11.2421875 11.636718-14.296875 28.121094-7.976562 43.011718 6.324218 14.894532 20.300781 24.148438 36.480468 24.148438h425.679688c8.472656 0 15.339844-6.867188 15.339844-15.339844v-108.753906zm0 0" fill="#ff9f00"/><path d="m161.980469 324.578125c-34.074219 0-61.796875 27.726563-61.796875 61.800781 0 34.078125 27.722656 61.800782 61.796875 61.800782 34.078125 0 61.800781-27.722657 61.800781-61.800782 0-34.074218-27.722656-61.800781-61.800781-61.800781zm0 0" fill="#007a9f"/><path d="m256.019531 401.71875h209.382813c8.472656 0 15.339844-6.867188 15.339844-15.339844v-108.753906h-224.722657zm0 0" fill="#ff641a"/><path d="m360.804688 324.578125c-34.078126 0-61.800782 27.726563-61.800782 61.800781 0 34.078125 27.722656 61.800782 61.800782 61.800782 34.078124 0 61.800781-27.722657 61.800781-61.800782 0-34.074218-27.722657-61.800781-61.800781-61.800781zm0 0" fill="#00465f"/></svg>